<?xml version="1.0" standalone="no"?>
<!DOCTYPE svg PUBLIC "-//W3C//DTD SVG 20010904//EN"
 "http://www.w3.org/TR/2001/REC-SVG-20010904/DTD/svg10.dtd">
<svg version="1.0" xmlns="http://www.w3.org/2000/svg"
 width="512.000000pt" height="512.000000pt" viewBox="0 0 512.000000 512.000000"
 preserveAspectRatio="xMidYMid meet">
<metadata>
Created by potrace 1.14, written by Peter Selinger 2001-2017
</metadata>
<g transform="translate(0.000000,512.000000) scale(0.100000,-0.100000)"
fill="#000000" stroke="none">
<path d="M3022 3670 c-17 -11 -35 -27 -40 -37 -31 -57 -295 -724 -299 -754 -4
-30 -1 -39 18 -53 31 -21 78 -20 108 3 22 17 24 17 60 -1 29 -16 51 -19 112
-15 66 3 82 8 119 34 88 66 123 136 124 253 0 72 -3 91 -24 127 -27 49 -86 83
-143 83 -20 0 -37 2 -37 3 0 2 18 48 41 103 70 171 80 203 67 228 -14 28 -11
25 -46 35 -23 7 -37 5 -60 -9z m42 -512 c21 -29 20 -64 -3 -114 -39 -86 -98
-115 -150 -75 l-24 18 24 63 c42 112 115 163 153 108z"/>
<path d="M1690 3662 c-132 -34 -228 -117 -320 -273 -29 -50 -58 -92 -64 -94
-6 -2 -69 -6 -141 -9 -143 -6 -178 -10 -245 -33 -145 -49 -261 -146 -321 -269
-31 -62 -34 -77 -34 -154 1 -72 5 -95 30 -148 86 -190 327 -227 495 -76 50 45
110 135 240 362 51 89 98 162 104 163 53 5 148 3 152 -2 2 -4 -12 -51 -31
-104 -46 -127 -41 -166 26 -201 42 -21 227 -19 274 3 19 9 37 24 40 34 15 46
13 62 -8 83 -19 19 -35 23 -92 25 -38 1 -71 4 -73 6 -5 5 59 155 66 156 4 0
35 2 69 4 69 3 101 20 118 62 23 55 -12 97 -80 95 -25 -1 -45 0 -45 3 0 3 25
67 56 143 89 221 86 236 -58 239 -60 1 -116 -4 -158 -15z m53 -169 c-3 -10 -9
-22 -13 -28 -4 -5 -19 -44 -34 -85 -15 -41 -33 -78 -39 -82 -16 -10 -137 -10
-137 0 0 13 89 143 112 163 50 44 123 64 111 32z m-523 -362 c0 -14 -211 -366
-233 -389 -72 -78 -183 -68 -228 20 -58 115 48 289 210 343 72 24 251 42 251
26z"/>
<path d="M2298 3655 c-31 -36 -309 -722 -310 -764 0 -21 8 -41 21 -55 20 -19
33 -21 140 -21 126 0 144 6 162 52 11 30 -4 69 -29 77 -11 4 -41 7 -67 8 -30
0 -45 5 -42 12 3 6 61 151 131 323 69 171 126 322 126 336 0 57 -91 79 -132
32z"/>
<path d="M2605 3505 c-5 -2 -22 -6 -37 -9 -30 -7 -58 -50 -58 -90 0 -73 108
-109 156 -52 25 29 31 74 14 107 -11 20 -59 48 -75 44z"/>
<path d="M502 3429 c-80 -20 -179 -68 -210 -102 -29 -31 -53 -80 -44 -89 4 -4
25 -3 46 3 21 6 40 9 42 7 2 -2 -3 -28 -11 -58 -59 -221 -28 -481 81 -678 117
-213 401 -494 664 -656 294 -183 710 -328 1090 -381 19 -3 51 -7 70 -10 92
-13 232 -20 405 -20 269 0 385 13 691 75 45 10 184 49 279 78 187 59 480 191
657 295 85 50 267 176 363 252 144 112 239 192 243 203 2 7 -86 -32 -195 -87
-348 -173 -488 -234 -712 -312 -172 -60 -513 -151 -651 -174 -19 -3 -60 -10
-90 -15 -82 -14 -109 -18 -175 -26 -33 -3 -67 -8 -75 -9 -97 -18 -472 -24
-619 -10 -42 3 -96 8 -121 11 -40 3 -93 11 -141 19 -9 2 -33 6 -53 9 -249 40
-557 139 -811 261 -323 154 -501 289 -646 490 -122 168 -211 457 -205 665 4
122 27 157 151 232 30 18 55 36 55 40 0 5 -1 8 -2 7 -2 0 -36 -9 -76 -20z"/>
<path d="M3443 3290 c-53 -24 -124 -96 -154 -156 -31 -64 -38 -168 -15 -228
26 -67 65 -90 163 -94 70 -3 86 -1 110 16 28 20 28 20 53 0 21 -17 36 -19 112
-16 96 3 124 18 133 70 8 44 -21 68 -87 70 -32 2 -58 3 -58 4 0 1 22 56 48
121 65 158 66 165 41 197 -25 32 -76 35 -110 7 -23 -19 -24 -19 -54 2 -40 29
-126 32 -182 7z m133 -119 c7 -1 15 -12 18 -25 7 -28 -45 -162 -72 -182 -26
-20 -76 -17 -96 5 -48 53 44 213 117 205 12 -1 27 -3 33 -3z"/>
<path d="M2507 3289 c-23 -13 -43 -55 -111 -225 -71 -179 -72 -206 -11 -236
38 -19 186 -22 235 -5 39 13 57 48 46 90 -7 30 -33 41 -98 38 l-48 -1 19 47
c10 27 32 82 49 123 44 111 47 135 23 159 -23 23 -74 28 -104 10z"/>
<path d="M1373 2780 c-46 -10 -79 -34 -110 -82 -23 -34 -28 -52 -28 -104 0
-71 22 -112 69 -129 60 -21 87 38 37 81 -34 29 -38 51 -16 94 19 37 51 59 76
53 41 -11 40 -35 -5 -171 -24 -72 -47 -143 -50 -160 -9 -40 18 -70 68 -76 43
-4 105 10 107 24 1 6 2 16 3 23 4 22 -16 37 -50 37 -23 0 -34 5 -34 14 0 8 18
65 40 126 49 137 52 187 13 230 -33 35 -75 49 -120 40z"/>
<path d="M4602 2733 c-11 -21 -48 -122 -83 -225 -57 -166 -62 -189 -49 -202
19 -18 76 -25 116 -14 25 6 31 13 30 35 -1 21 -7 28 -33 35 -38 10 -37 8 -22
45 44 112 115 331 111 346 -2 10 -13 17 -28 17 -17 0 -28 -10 -42 -37z"/>
<path d="M3442 2668 c-33 -33 8 -90 48 -68 30 16 26 58 -6 70 -31 12 -28 12
-42 -2z"/>
<path d="M1997 2642 c-8 -9 -20 -30 -26 -45 -6 -15 -19 -30 -28 -34 -23 -8
-53 -33 -53 -45 0 -4 8 -16 19 -27 18 -18 18 -20 -1 -72 -40 -112 -33 -129 50
-129 68 0 85 9 80 41 -2 17 -11 25 -33 29 -33 7 -33 11 -9 78 12 32 21 42 38
42 25 0 53 27 52 50 -1 8 -11 19 -24 25 -14 6 -20 15 -16 25 13 33 12 50 -2
65 -20 19 -27 19 -47 -3z"/>
<path d="M3328 2641 c-8 -9 -19 -28 -26 -44 -6 -15 -23 -32 -36 -37 -38 -14
-51 -45 -27 -69 18 -18 18 -20 0 -72 -42 -117 -35 -132 63 -127 62 3 63 3 63
32 0 25 -5 31 -32 38 l-31 8 16 50 c17 49 31 62 81 69 21 3 19 44 -3 65 -18
16 -21 26 -15 44 5 12 6 28 3 36 -8 21 -41 26 -56 7z"/>
<path d="M2389 2598 c-19 -15 -59 -120 -59 -153 0 -12 8 -26 17 -30 17 -6 32
7 59 51 22 35 23 8 3 -34 -37 -75 -10 -137 64 -146 37 -4 96 9 98 22 0 4 2 15
4 25 4 20 -8 27 -57 32 -18 2 -36 4 -40 4 -5 1 -8 12 -8 25 0 29 33 72 71 92
24 12 30 21 27 42 -3 24 -7 27 -48 30 -69 4 -87 10 -93 32 -6 23 -17 25 -38 8z"/>
<path d="M1730 2555 c-22 -8 -39 -9 -47 -3 -29 23 -50 -2 -84 -100 -48 -136
-48 -139 -35 -158 25 -33 53 -8 83 72 15 41 38 86 49 101 18 23 24 25 37 15
14 -12 14 -19 -4 -69 -21 -63 -24 -108 -8 -119 23 -14 119 -8 135 8 31 30 4
65 -45 58 -15 -2 -14 9 10 92 24 86 -14 129 -91 103z"/>
<path d="M2160 2551 c-66 -34 -106 -150 -74 -212 22 -44 38 -51 125 -51 66 0
85 3 95 16 17 24 6 56 -20 57 -11 0 -42 1 -68 2 -26 1 -53 8 -60 15 -10 9 -2
12 40 12 43 0 58 5 77 25 27 26 32 65 16 108 -16 41 -81 55 -131 28z m63 -76
c1 -5 -11 -12 -27 -13 -27 -3 -28 -2 -16 13 14 17 40 17 43 0z"/>
<path d="M2780 2558 c-14 -5 -44 -7 -66 -3 -41 6 -42 6 -59 -37 -10 -24 -30
-80 -46 -125 -24 -72 -26 -85 -14 -97 30 -30 53 -7 91 90 37 93 55 114 80 94
10 -9 9 -22 -7 -67 -28 -82 -26 -109 10 -121 40 -14 109 -4 121 19 11 20 3 48
-14 50 -6 1 -18 2 -26 3 -18 1 -18 24 0 87 7 25 10 57 7 70 -8 33 -44 49 -77
37z"/>
<path d="M3017 2560 c-35 -10 -63 -42 -88 -95 -50 -109 8 -200 110 -172 21 5
42 5 55 -1 30 -13 85 -3 96 18 14 26 2 50 -25 50 -13 0 -26 4 -29 9 -3 4 6 43
20 85 30 90 26 101 -39 101 -23 1 -49 4 -57 7 -8 3 -28 2 -43 -2z m56 -85 c8
-20 -21 -102 -39 -109 -36 -14 -59 19 -43 62 21 54 69 82 82 47z"/>
<path d="M3675 2556 c-60 -27 -95 -85 -95 -157 0 -54 24 -97 58 -104 15 -4 35
-8 46 -10 10 -2 36 3 58 12 88 35 113 204 38 251 -30 19 -73 22 -105 8z m63
-78 c15 -15 15 -68 -1 -89 -30 -39 -86 -29 -82 14 7 64 53 105 83 75z"/>
<path d="M4020 2555 c-23 -8 -43 -9 -59 -3 -34 12 -44 -1 -85 -116 -39 -107
-43 -128 -23 -144 24 -20 54 5 72 60 36 109 70 153 94 124 8 -9 5 -29 -9 -71
-36 -104 -29 -115 71 -115 54 0 59 2 65 24 8 32 -2 46 -31 46 -34 0 -36 9 -16
76 30 96 -3 145 -79 119z"/>
<path d="M4254 2554 c-34 -16 -83 -87 -85 -121 -1 -13 -2 -33 -3 -45 -5 -65
45 -113 104 -100 14 3 35 5 48 4 12 0 40 -2 62 -3 44 -2 70 14 70 42 0 21 -26
38 -52 34 -23 -4 -23 2 7 81 14 36 25 75 25 85 0 20 -2 21 -65 24 -22 1 -49 4
-61 8 -11 3 -34 -1 -50 -9z m69 -99 c-3 -40 -22 -82 -39 -89 -45 -17 -61 50
-23 98 30 38 65 32 62 -9z"/>
<path d="M3482 2547 c-14 -17 -59 -136 -71 -190 -12 -52 5 -67 74 -67 63 0 91
19 75 51 -6 10 -20 19 -31 19 -30 0 -33 23 -9 88 26 70 24 106 -6 110 -11 2
-26 -3 -32 -11z"/>
</g>
</svg>
